<svg id="Capa_1" enable-background="new 0 0 512 512" height="512" viewBox="0 0 512 512" width="512" xmlns="http://www.w3.org/2000/svg" xmlns:xlink="http://www.w3.org/1999/xlink"><linearGradient id="SVGID_1_" gradientTransform="matrix(1 0 0 -1 -561.6 -10842.99)" gradientUnits="userSpaceOnUse" x1="998.685" x2="557.6" y1="-10917.905" y2="-11358.99"><stop offset="0" stop-color="#ffd9d9" stop-opacity="0"/><stop offset=".9981" stop-color="#ffb3b3"/></linearGradient><g><g><path d="m411.152 155.152c-29.991 0-54.303-24.312-54.303-54.303 0-55.698-45.152-100.849-100.849-100.849s-100.848 45.151-100.848 100.848c0 29.991-24.312 54.303-54.303 54.303-55.698.001-100.849 45.152-100.849 100.849s45.151 100.848 100.848 100.848c29.991 0 54.303 24.312 54.303 54.303.001 55.698 45.152 100.849 100.849 100.849s100.848-45.151 100.848-100.848c0-29.991 24.312-54.303 54.303-54.303 55.698-.001 100.849-45.152 100.849-100.849s-45.151-100.848-100.848-100.848z" fill="url(#SVGID_1_)"/><g><path d="m448.667 186.058h-3v-3c0-2.762-2.238-5-5-5s-5 2.238-5 5v3h-3c-2.762 0-5 2.238-5 5s2.238 5 5 5h3v3c0 2.762 2.238 5 5 5s5-2.238 5-5v-3h3c2.762 0 5-2.238 5-5s-2.238-5-5-5z" fill="#8383ff"/><path d="m73 311.044h-3v-3c0-2.762-2.238-5-5-5s-5 2.238-5 5v3h-3c-2.762 0-5 2.238-5 5s2.238 5 5 5h3v3c0 2.762 2.238 5 5 5s5-2.238 5-5v-3h3c2.762 0 5-2.238 5-5s-2.238-5-5-5z" fill="#ff6c6c"/><path d="m79.333 107.246h-3v-3c0-2.762-2.238-5-5-5s-5 2.238-5 5v3h-3c-2.762 0-5 2.238-5 5s2.238 5 5 5h3v3c0 2.762 2.238 5 5 5s5-2.238 5-5v-3h3c2.762 0 5-2.238 5-5s-2.238-5-5-5z" fill="#ff9d33"/><path d="m434.327 142.402c-1.279 0-2.56-.488-3.535-1.465l-4.465-4.464-4.465 4.464c-1.951 1.953-5.119 1.953-7.07 0-1.953-1.952-1.953-5.118 0-7.07l8-8c1.951-1.953 5.119-1.953 7.07 0l8 8c1.953 1.952 1.953 5.118 0 7.07-.975.977-2.256 1.465-3.535 1.465z" fill="#ff9d33"/><path d="m426.327 418.068c-1.279 0-2.56-.488-3.535-1.465l-4.465-4.464-4.465 4.464c-1.951 1.953-5.119 1.953-7.07 0-1.953-1.952-1.953-5.118 0-7.07l8-8c1.951-1.953 5.119-1.953 7.07 0l8 8c1.953 1.952 1.953 5.118 0 7.07-.975.977-2.256 1.465-3.535 1.465z" fill="#8383ff"/><g><path d="m439.479 295.805-31.581-31.581 14.043-14.043c2.678-2.678 1.522-7.245-2.107-8.327l-31.6-9.424v-102.195c0-5.194-4.211-9.405-9.405-9.405h-30.404v-42.855c0-5.194-4.211-9.405-9.405-9.405h-225.892c-5.194 0-9.405 4.211-9.405 9.405v345.791c0 5.194 4.211 9.405 9.405 9.405h30.404v42.855c0 5.194 4.211 9.405 9.405 9.405h225.891c5.194 0 9.405-4.211 9.405-9.405v-191.903l31.464 31.464c1.953 1.953 5.118 1.953 7.071 0l12.711-12.711c1.953-1.953 1.953-5.118 0-7.071z" fill="#2626bc" opacity=".1"/><g><g><path d="m339.019 406.171h-225.891c-5.194 0-9.405-4.211-9.405-9.405v-345.791c0-5.194 4.211-9.405 9.405-9.405h225.891c5.194 0 9.405 4.211 9.405 9.405v345.791c0 5.194-4.21 9.405-9.405 9.405z" fill="#ebebff"/><path d="m188.347 75.647 34.078-34.078h-109.297c-5.194 0-9.405 4.211-9.405 9.405v27.427h77.974c2.494.001 4.887-.99 6.65-2.754z" fill="#b3b3ff"/><g><path d="m317.729 71.064h-83.255c-2.597 0-4.703-2.106-4.703-4.703s2.105-4.703 4.703-4.703h83.255c2.597 0 4.703 2.106 4.703 4.703 0 2.598-2.105 4.703-4.703 4.703z" fill="#8383ff"/></g></g><g><path d="m388.23 103.23v345.8c0 5.19-4.21 9.4-9.4 9.4h-225.89c-5.2 0-9.41-4.21-9.41-9.4v-345.8c0-5.19 4.21-9.4 9.41-9.4h225.89c5.19 0 9.4 4.21 9.4 9.4z" fill="#fff"/><g><path d="m388.23 225.98v51.69l-.11-.11-14.05 14.04c-2.67 2.68-7.24 1.52-8.32-2.11l-20.34-68.21c-1.14-3.8 2.41-7.35 6.22-6.22z" fill="#ebebff"/></g><path d="m388.234 225v-121.765c0-5.194-4.211-9.405-9.405-9.405h-225.891c-5.194 0-9.405 4.211-9.405 9.405v121.765z" fill="#b3b3ff"/><path d="m228.157 127.907 34.078-34.078h-109.297c-5.194 0-9.405 4.211-9.405 9.405v27.427h77.974c2.494.001 4.886-.99 6.65-2.754z" fill="#8383ff"/><g><g><path d="m419.834 214.854-68.208-20.341c-3.809-1.136-7.356 2.412-6.22 6.22l20.341 68.208c1.082 3.629 5.649 4.784 8.327 2.107l14.043-14.043 31.581 31.581c1.953 1.953 5.118 1.953 7.071 0l12.711-12.711c1.953-1.953 1.953-5.118 0-7.071l-31.581-31.581 14.043-14.043c2.676-2.677 1.521-7.244-2.108-8.326z" fill="#8383ff"/></g><g fill="#2626bc"><path d="m317.824 88.83h-164.886c-7.943 0-14.405 6.462-14.405 14.404v247.132c0 2.762 2.238 5 5 5s5-2.238 5-5v-247.132c0-2.429 1.977-4.404 4.405-4.404h164.887c2.762 0 5-2.238 5-5s-2.239-5-5.001-5z"/><path d="m443.015 265.27-28.046-28.046 10.507-10.508c2.516-2.515 3.496-6.074 2.624-9.522s-3.428-6.114-6.836-7.131h-.001l-28.029-8.358v-98.47c0-7.942-6.462-14.404-14.405-14.404h-25.403v-37.856c0-7.943-6.462-14.405-14.405-14.405h-225.893c-7.943 0-14.405 6.462-14.405 14.405v345.791c0 7.943 6.462 14.405 14.405 14.405h25.404v37.854c0 7.943 6.462 14.405 14.405 14.405h225.891c7.943 0 14.405-6.462 14.405-14.405v-179.831l22.93 22.929c1.949 1.948 4.509 2.923 7.069 2.923s5.122-.975 7.071-2.924l12.711-12.711c3.899-3.897 3.899-10.241.001-14.141zm-64.187 188.161h-225.89c-2.429 0-4.405-1.977-4.405-4.405v-68.059c0-2.762-2.238-5-5-5s-5 2.238-5 5v20.204h-25.404c-2.429 0-4.405-1.977-4.405-4.405v-345.791c0-2.429 1.977-4.405 4.405-4.405h225.891c2.429 0 4.405 1.977 4.405 4.405v42.855c0 2.762 2.238 5 5 5h30.403c2.429 0 4.405 1.976 4.405 4.404v95.488l-30.178-8.999c-3.521-1.055-7.329-.091-9.929 2.51-2.602 2.601-3.564 6.405-2.513 9.93l20.34 68.208c1.017 3.409 3.683 5.965 7.131 6.837 3.449.874 7.009-.106 9.523-2.623l5.625-5.625v180.066c.001 2.428-1.975 4.405-4.404 4.405zm44.404-168.379-31.581-31.581c-.976-.977-2.256-1.465-3.535-1.465s-2.56.488-3.535 1.465l-14.044 14.042-20.34-68.208 68.208 20.34-14.043 14.044c-.938.938-1.465 2.209-1.465 3.535s.526 2.598 1.465 3.535l31.582 31.582z"/></g></g><g><path d="m357.538 123.324h-83.255c-2.597 0-4.703-2.106-4.703-4.703s2.105-4.703 4.703-4.703h83.255c2.597 0 4.703 2.106 4.703 4.703s-2.105 4.703-4.703 4.703z" fill="#8383ff"/></g></g></g><g fill="#fff"><path d="m271.291 203.894h-10.816c-6.553 0-11.884-5.331-11.884-11.884v-29.02c0-6.553 5.331-11.884 11.884-11.884h10.816c6.553 0 11.884 5.331 11.884 11.884v29.02c0 6.553-5.331 11.884-11.884 11.884zm-10.816-42.788c-1.039 0-1.884.845-1.884 1.884v29.02c0 1.039.845 1.884 1.884 1.884h10.816c1.039 0 1.884-.845 1.884-1.884v-29.02c0-1.039-.845-1.884-1.884-1.884z"/><path d="m225.589 203.894h-16.331c-2.762 0-5-2.238-5-5v-42.787c0-2.762 2.238-5 5-5h16.331c7.308 0 13.253 5.945 13.253 13.253v26.281c0 7.307-5.946 13.253-13.253 13.253zm-11.331-10h11.331c1.794 0 3.253-1.459 3.253-3.253v-26.281c0-1.794-1.459-3.253-3.253-3.253h-11.331z"/><path d="m316.114 203.894h-9.241c-7.691 0-13.949-6.258-13.949-13.949v-24.889c0-7.691 6.258-13.949 13.949-13.949h9.241c6.283 0 11.395 5.111 11.395 11.394 0 2.762-2.238 5-5 5s-5-2.238-5-5c0-.769-.626-1.394-1.395-1.394h-9.241c-2.178 0-3.949 1.771-3.949 3.949v24.889c0 2.178 1.771 3.949 3.949 3.949h9.241c.769 0 1.395-.625 1.395-1.394 0-2.762 2.238-5 5-5s5 2.238 5 5c0 6.282-5.112 11.394-11.395 11.394z"/></g><g><g><g><path d="m281.643 272.725h-37.52c-2.762 0-5-2.239-5-5s2.238-5 5-5h37.52c2.762 0 5 2.239 5 5s-2.239 5-5 5z" fill="#ff6c6c"/></g><g><path d="m353.643 290.228h-109.52c-2.762 0-5-2.239-5-5s2.238-5 5-5h109.52c2.762 0 5 2.239 5 5s-2.239 5-5 5z" fill="#ff6c6c"/></g></g><g><g><path d="m353.643 307.731h-109.52c-2.762 0-5-2.239-5-5s2.238-5 5-5h109.52c2.762 0 5 2.239 5 5s-2.239 5-5 5z" fill="#ff6c6c"/></g><g><path d="m353.643 325.233h-175.52c-2.762 0-5-2.239-5-5s2.238-5 5-5h175.52c2.762 0 5 2.239 5 5s-2.239 5-5 5z" fill="#ff6c6c"/></g></g><g fill="#ff6c6c"><circle cx="245.67" cy="249.675" r="5"/><circle cx="261.92" cy="249.675" r="5"/></g></g><g><g><g><path d="m353.643 351.559h-175.52c-2.762 0-5-2.239-5-5s2.238-5 5-5h175.52c2.762 0 5 2.239 5 5s-2.239 5-5 5z" fill="#ff6c6c"/></g></g><g><g><path d="m353.643 369.061h-175.52c-2.762 0-5-2.239-5-5s2.238-5 5-5h175.52c2.762 0 5 2.239 5 5s-2.239 5-5 5z" fill="#ff6c6c"/></g><g><path d="m353.643 386.564h-175.52c-2.762 0-5-2.239-5-5s2.238-5 5-5h175.52c2.762 0 5 2.239 5 5s-2.239 5-5 5z" fill="#ff6c6c"/></g></g></g><g><g><g><path d="m353.643 411.068h-175.52c-2.762 0-5-2.239-5-5s2.238-5 5-5h175.52c2.762 0 5 2.239 5 5s-2.239 5-5 5z" fill="#ff6c6c"/></g></g><g><g><path d="m353.643 428.571h-175.52c-2.762 0-5-2.239-5-5s2.238-5 5-5h175.52c2.762 0 5 2.239 5 5s-2.239 5-5 5z" fill="#ff6c6c"/></g></g></g></g><g><g fill="#8383ff"><path d="m226.076 306.622c-1.937 0-3.78-1.132-4.595-3.023l-16.407-38.11-16.406 38.11c-1.092 2.536-4.036 3.706-6.57 2.615-2.536-1.092-3.707-4.033-2.615-6.57l20.999-48.777c.79-1.834 2.596-3.022 4.593-3.022s3.803 1.188 4.593 3.022l21 48.777c1.092 2.537-.079 5.479-2.615 6.57-.646.277-1.317.408-1.977.408z"/><path d="m214.595 291.066h-23.822c-2.762 0-5-2.238-5-5s2.238-5 5-5h23.822c2.762 0 5 2.238 5 5s-2.239 5-5 5z"/></g></g></g></g></g></svg>