<svg id="Capa_1" enable-background="new 0 0 512 512" height="512" viewBox="0 0 512 512" width="512" xmlns="http://www.w3.org/2000/svg" xmlns:xlink="http://www.w3.org/1999/xlink"><linearGradient id="SVGID_1_" gradientUnits="userSpaceOnUse" x1="330.994" x2="173.502" y1="517.408" y2="-31.565"><stop offset=".0012" stop-color="#ffe783"/><stop offset="1" stop-color="#fff" stop-opacity="0"/></linearGradient><g><path d="m500.574 200.6c7.18-16.204 11.241-34.098 11.419-52.921.684-71.971-56.211-132.099-128.121-135.166-23.591-1.006-45.905 4.091-65.495 13.843-39.321 19.575-85.436 19.575-124.757 0-19.589-9.752-41.903-14.849-65.494-13.843-71.908 3.068-128.803 63.194-128.12 135.166.179 18.823 4.239 36.717 11.419 52.921 15.628 35.269 15.628 75.53 0 110.8-7.18 16.204-11.241 34.099-11.419 52.922-.683 71.972 56.212 132.098 128.122 135.165 23.591 1.006 45.905-4.091 65.494-13.843 39.321-19.575 85.435-19.575 124.755 0 19.589 9.752 41.904 14.849 65.495 13.843 71.909-3.067 128.804-63.194 128.121-135.165-.179-18.823-4.239-36.717-11.419-52.921-15.628-35.271-15.628-75.532 0-110.801z" fill="url(#SVGID_1_)"/><g><path d="m426.666 93.832h-3v-3c0-2.761-2.239-5-5-5s-5 2.239-5 5v3h-3c-2.761 0-5 2.239-5 5s2.239 5 5 5h3v3c0 2.761 2.239 5 5 5s5-2.239 5-5v-3h3c2.761 0 5-2.239 5-5s-2.238-5-5-5z" fill="#c182f9"/><path d="m98 441.666h-3v-3c0-2.761-2.239-5-5-5s-5 2.239-5 5v3h-3c-2.761 0-5 2.239-5 5s2.239 5 5 5h3v3c0 2.761 2.239 5 5 5s5-2.239 5-5v-3h3c2.761 0 5-2.239 5-5s-2.239-5-5-5z" fill="#ffa052"/><path d="m448.666 334.228h-3v-3c0-2.761-2.239-5-5-5s-5 2.239-5 5v3h-3c-2.761 0-5 2.239-5 5s2.239 5 5 5h3v3c0 2.761 2.239 5 5 5s5-2.239 5-5v-3h3c2.761 0 5-2.239 5-5s-2.238-5-5-5z" fill="#ffa052"/><path d="m394.588 70.659c-1.28 0-2.559-.488-3.536-1.464l-4.464-4.464-4.464 4.464c-1.953 1.952-5.118 1.952-7.071 0-1.953-1.953-1.953-5.119 0-7.071l8-8c1.953-1.952 5.118-1.952 7.071 0l8 8c1.953 1.953 1.953 5.119 0 7.071-.977.976-2.256 1.464-3.536 1.464z" fill="#fdd250"/><path d="m79.333 418.17c-1.28 0-2.559-.488-3.536-1.464l-4.464-4.464-4.464 4.464c-1.953 1.952-5.118 1.952-7.071 0-1.953-1.953-1.953-5.119 0-7.071l8-8c1.953-1.952 5.118-1.952 7.071 0l8 8c1.953 1.953 1.953 5.119 0 7.071-.976.976-2.256 1.464-3.536 1.464z" fill="#c182f9"/><g><path d="m439.479 295.805-31.581-31.581 14.043-14.043c2.678-2.678 1.522-7.245-2.107-8.327l-31.6-9.424v-102.195c0-5.194-4.211-9.405-9.405-9.405h-30.404v-42.855c0-5.194-4.211-9.405-9.405-9.405h-225.892c-5.194 0-9.405 4.211-9.405 9.405v345.791c0 5.194 4.211 9.405 9.405 9.405h30.404v42.855c0 5.194 4.211 9.405 9.405 9.405h225.891c5.194 0 9.405-4.211 9.405-9.405v-191.903l31.464 31.464c1.953 1.953 5.118 1.953 7.071 0l12.711-12.711c1.953-1.953 1.953-5.118 0-7.071z" fill="#590bb2" opacity=".1"/><g><g><path d="m339.019 406.17h-225.891c-5.194 0-9.405-4.211-9.405-9.405v-345.79c0-5.194 4.211-9.405 9.405-9.405h225.891c5.194 0 9.405 4.211 9.405 9.405v345.791c0 5.194-4.211 9.404-9.405 9.404z" fill="#fff4c5"/><path d="m188.347 75.647 34.078-34.078h-109.297c-5.194 0-9.405 4.211-9.405 9.405v27.427h77.974c2.494.001 4.887-.99 6.65-2.754z" fill="#ffa052"/><g><path d="m317.729 71.064h-83.255c-2.597 0-4.703-2.106-4.703-4.703s2.105-4.703 4.703-4.703h83.255c2.597 0 4.703 2.106 4.703 4.703 0 2.598-2.105 4.703-4.703 4.703z" fill="#ffa052"/></g></g><g><path d="m388.23 103.23v345.8c0 5.19-4.21 9.4-9.4 9.4h-225.89c-5.2 0-9.41-4.21-9.41-9.4v-345.8c0-5.19 4.21-9.4 9.41-9.4h225.89c5.19 0 9.4 4.21 9.4 9.4z" fill="#fff"/><g><path d="m388.23 225.98v51.69l-.11-.11-14.05 14.04c-2.67 2.68-7.24 1.52-8.32-2.11l-20.34-68.21c-1.14-3.8 2.41-7.35 6.22-6.22z" fill="#efebff"/></g><path d="m388.234 225v-121.765c0-5.194-4.211-9.405-9.405-9.405h-225.892c-5.194 0-9.405 4.211-9.405 9.405v121.765z" fill="#ffbe92"/><path d="m228.157 127.907 34.078-34.078h-109.298c-5.194 0-9.405 4.211-9.405 9.405v27.427h77.974c2.494.001 4.887-.99 6.651-2.754z" fill="#c182f9"/><g><g><path d="m419.834 214.854-68.208-20.341c-3.809-1.136-7.356 2.412-6.22 6.22l20.341 68.208c1.082 3.629 5.649 4.784 8.327 2.107l14.043-14.043 31.581 31.581c1.953 1.953 5.118 1.953 7.071 0l12.711-12.711c1.953-1.953 1.953-5.118 0-7.071l-31.581-31.581 14.043-14.043c2.676-2.677 1.521-7.244-2.108-8.326z" fill="#c182f9"/></g><path d="m443.015 265.269-28.046-28.046 10.507-10.507c2.516-2.515 3.497-6.075 2.624-9.523-.872-3.448-3.428-6.114-6.837-7.13l-28.029-8.359v-98.469c0-7.943-6.462-14.405-14.405-14.405h-25.404v-37.855c0-7.943-6.462-14.405-14.405-14.405h-68.052c-2.761 0-5 2.239-5 5s2.239 5 5 5h68.052c2.429 0 4.405 1.976 4.405 4.405v37.855h-190.488c-7.943 0-14.405 6.462-14.405 14.405v272.335c0 2.761 2.239 5 5 5s5-2.239 5-5v-272.335c0-2.429 1.976-4.405 4.405-4.405h225.891c2.429 0 4.405 1.976 4.405 4.405v95.487l-30.179-9c-3.524-1.05-7.329-.088-9.929 2.513-2.6 2.6-3.563 6.405-2.511 9.928l20.34 68.209c1.017 3.409 3.683 5.964 7.131 6.836s7.008-.108 9.523-2.624l5.625-5.625v180.066c0 2.429-1.976 4.405-4.405 4.405h-225.891c-2.429 0-4.405-1.976-4.405-4.405v-42.855c0-2.761-2.239-5-5-5h-30.404c-2.429 0-4.405-1.976-4.405-4.405v-345.79c0-2.429 1.976-4.405 4.405-4.405h127.238c2.761 0 5-2.239 5-5s-2.239-5-5-5h-127.238c-7.943 0-14.405 6.462-14.405 14.405v345.791c0 7.943 6.462 14.405 14.405 14.405h25.404v37.855c0 7.943 6.462 14.405 14.405 14.405h225.891c7.943 0 14.405-6.462 14.405-14.405v-179.832l22.928 22.929c1.95 1.949 4.51 2.924 7.071 2.924s5.122-.975 7.071-2.924l12.71-12.711c1.889-1.889 2.929-4.4 2.929-7.071.001-2.672-1.039-5.183-2.927-7.072zm-19.782 19.782-31.581-31.582c-.938-.938-2.209-1.464-3.536-1.464s-2.598.527-3.536 1.464l-14.043 14.043-20.34-68.209 68.208 20.34-14.042 14.043c-1.953 1.953-1.953 5.119 0 7.071l31.581 31.581z" fill="#590bb2"/></g><g><path d="m357.538 123.324h-83.255c-2.597 0-4.703-2.106-4.703-4.703s2.105-4.703 4.703-4.703h83.255c2.597 0 4.703 2.106 4.703 4.703s-2.105 4.703-4.703 4.703z" fill="#ff8736"/></g></g></g><g fill="#fff"><path d="m209.258 203.893c-2.761 0-5-2.239-5-5v-42.787c0-2.761 2.239-5 5-5h19.584c5.514 0 10 4.486 10 10v14.394c0 5.514-4.486 10-10 10h-13.71c-.298 0-.59-.026-.874-.076v13.47c0 2.761-2.239 4.999-5 4.999zm5-42.787v14.47c.284-.05.576-.076.874-.076h13.71v-14.394z"/><path d="m269.922 203.893h-16.331c-2.761 0-5-2.239-5-5v-42.787c0-2.761 2.239-5 5-5h16.331c7.308 0 13.253 5.945 13.253 13.253v26.281c0 7.308-5.946 13.253-13.253 13.253zm-11.331-10h11.331c1.793 0 3.253-1.459 3.253-3.253v-26.281c0-1.793-1.459-3.253-3.253-3.253h-11.331z"/><path d="m316.508 182.5h-15.71c-2.761 0-5-2.239-5-5s2.239-5 5-5h15.71c2.761 0 5 2.239 5 5s-2.239 5-5 5z"/><path d="m297.924 203.893c-2.761 0-5-2.239-5-5v-42.787c0-2.761 2.239-5 5-5h24.584c2.761 0 5 2.239 5 5s-2.239 5-5 5h-19.584v37.787c0 2.762-2.239 5-5 5z"/></g><g><g><g><path d="m227.643 272.725h-49.52c-2.762 0-5-2.239-5-5s2.238-5 5-5h49.52c2.762 0 5 2.239 5 5s-2.239 5-5 5z" fill="#c182f9"/></g><g><path d="m353.643 290.228h-175.52c-2.762 0-5-2.239-5-5s2.238-5 5-5h175.52c2.762 0 5 2.239 5 5s-2.239 5-5 5z" fill="#c182f9"/></g></g><g><g><path d="m353.643 325.233h-175.52c-2.762 0-5-2.239-5-5s2.238-5 5-5h175.52c2.762 0 5 2.239 5 5s-2.239 5-5 5z" fill="#c182f9"/></g></g><g fill="#c182f9"><circle cx="179.67" cy="249.675" r="5"/><circle cx="195.92" cy="249.675" r="5"/></g></g><g><g><g><path d="m353.643 357.558h-175.52c-2.762 0-5-2.239-5-5s2.238-5 5-5h175.52c2.762 0 5 2.239 5 5s-2.239 5-5 5z" fill="#ffa052"/></g></g><g><g><path d="m353.643 375.061h-175.52c-2.762 0-5-2.239-5-5s2.238-5 5-5h175.52c2.762 0 5 2.239 5 5s-2.239 5-5 5z" fill="#ffa052"/></g><g><path d="m353.643 392.564h-175.52c-2.762 0-5-2.239-5-5s2.238-5 5-5h175.52c2.762 0 5 2.239 5 5s-2.239 5-5 5z" fill="#ffa052"/></g></g></g><g><path d="m265.883 433.674c-1.326 0-2.598-.527-3.536-1.465l-6.114-6.114c-1.953-1.953-1.953-5.118 0-7.071 1.953-1.952 5.119-1.952 7.071 0l2.578 2.578 2.579-2.579c1.953-1.952 5.118-1.952 7.071 0 1.953 1.953 1.953 5.119 0 7.071l-6.114 6.114c-.938.939-2.209 1.466-3.535 1.466z" fill="#ffc136"/></g></g></g></g></svg>